<svg width="494" height="617" viewBox="0 0 494 617" fill="none" xmlns="http://www.w3.org/2000/svg">
<path d="M493.125 246.562C493.125 481.356 246.562 616.406 246.562 616.406C246.562 616.406 0 481.356 0 246.562C0 181.17 25.977 118.456 72.2165 72.2165C118.456 25.977 181.17 0 246.562 0C311.955 0 374.669 25.977 420.909 72.2165C467.148 118.456 493.125 181.17 493.125 246.562Z" fill="#FF9800"/>
<path d="M302.51 87.8219C290.651 96.2383 281.316 103.966 271.293 113.683C245.355 138.856 229.134 166.86 222.401 198.153C220.488 207.105 220.335 209.095 220.412 225.392C220.412 235.798 220.718 243.755 221.253 244.903C221.942 246.586 222.095 246.28 222.554 242.225C226.915 207.105 243.748 176.883 273.129 151.634C282.77 143.37 288.202 139.315 295.394 135.183C302.816 130.975 305.035 128.909 306.336 125.007C306.948 123.247 307.56 115.443 307.943 105.649C308.325 93.6369 308.784 88.3575 309.702 85.9091C310.391 84.1493 310.697 82.6955 310.314 82.6955C310.008 82.6955 306.489 84.9909 302.51 87.8219Z" fill="white"/>
<path d="M189.501 108.48C180.319 127.532 175.881 140.31 172.132 158.826C169.454 172.216 168.383 184.611 168.919 197.847C170.143 227.687 178.33 252.937 195.086 278.186C200.748 286.755 214.75 303.818 216.127 303.818C216.586 303.818 215.209 300.451 213.143 296.319C205.415 280.94 199.141 261.124 196.846 244.979C195.622 236.563 195.698 216.517 196.922 208.559C199.6 191.497 205.568 174.281 213.679 160.739C220.259 149.721 221.789 145.742 221.33 141.228C220.718 136.102 216.357 127.762 209.088 117.891C201.513 107.639 198.988 103.431 197.687 98.9163C197.152 97.1565 196.54 95.7027 196.234 95.7027C196.004 95.7027 192.944 101.441 189.501 108.48Z" fill="white"/>
<path d="M365.327 129.904C349.719 132.582 325.923 142.376 307.636 153.699C290.804 164.105 272.67 179.79 263.718 191.726C259.127 197.847 253.083 209.554 252.394 213.533L252.012 216.211L255.302 212.385C273.512 191.267 292.563 177.265 314.829 168.773C322.48 165.789 329.519 164.182 341.379 162.651C350.254 161.58 355.916 159.591 359.053 156.683C360.048 155.765 362.573 151.634 364.715 147.578C367.24 142.682 370.147 138.32 373.514 134.724L378.487 129.368L372.825 129.445C369.765 129.521 366.398 129.751 365.327 129.904Z" fill="white"/>
<path d="M329.749 177.954C322.939 179.025 311.386 181.856 309.549 182.927C308.784 183.386 312.074 183.693 318.654 183.693C335.564 183.693 349.03 186.6 359.971 192.645C365.939 195.858 369.459 198.536 375.809 204.504C380.171 208.636 380.783 208.942 384.149 208.942C386.139 208.942 390.423 208.024 393.713 206.952C398.687 205.269 400.829 205.04 405.879 205.269C409.246 205.422 412 205.269 412 205.04C412 204.198 404.119 197.082 398.993 193.333C388.97 185.911 374.815 180.173 361.502 177.954C352.932 176.577 338.318 176.577 329.749 177.954Z" fill="white"/>
<path d="M82.6121 226.234C84.2954 235.568 91.6406 254.696 99.0624 269.387C109.545 289.969 122.552 307.643 139.92 324.859C173.892 358.524 216.127 380.331 263.948 388.824C272.823 390.43 276.266 390.66 295.318 390.66C310.85 390.66 317.201 390.43 318.272 389.742C319.649 388.9 319.572 388.824 316.971 388.747C311.003 388.747 295.7 385.533 285.907 382.243C258.133 372.985 233.495 357.224 209.93 333.734C190.189 313.917 181.926 301.752 168.766 273.06C155.376 243.832 156.677 244.826 125.459 239.241C108.014 236.104 96.0019 231.972 85.3666 225.316L82 223.25L82.6121 226.234Z" fill="white"/>
</svg>
